# xmcd CD database file
#
# Track frame offsets:
#	182
#	16832
#	31082
#	48782
#	68570
#	81920
#	102432
#	121682
#	136782
#	153957
#	175857
#	201045
#	221057
#	238195
#	257645
#
# Disc length: 3754 seconds
#
# Revision: 0
# Processed by: cddbd v1.5PL3 Copyright (c) Steve Scherf et al.
# Submitted via: CDex 1.51
#
DISCID=bb0ea80f
DTITLE=Pie Conijn - A touch of silence
DYEAR=1992
DGENRE=New Age
TTITLE0=Wave 1
TTITLE1=Questions 1
TTITLE2=Breathings
TTITLE3=Caresses
TTITLE4=Unsquare
TTITLE5=Gentle evening
TTITLE6=Wave 2
TTITLE7=Exper 1
TTITLE8=Seduction
TTITLE9=To-night
TTITLE10=Satyricon
TTITLE11=Questions 2
TTITLE12=Long walks
TTITLE13=Development
TTITLE14=Dialogue
EXTD=YEAR: 1992
EXTT0=
EXTT1=
EXTT2=
EXTT3=
EXTT4=
EXTT5=
EXTT6=
EXTT7=
EXTT8=
EXTT9=
EXTT10=
EXTT11=
EXTT12=
EXTT13=
EXTT14=
PLAYORDER=
